#tb 0: 1/1200
0,          0,          0,        0,   230400, 0x0655b3d9
0,        100,        100,        0,   230400, 0x9c626fd3
0,        200,        200,        0,   230400, 0x5bc95868
0,        300,        300,        0,   230400, 0x55a38387
0,        400,        400,        0,   230400, 0xd3495b60
0,        500,        500,        0,   230400, 0xecdb2d15
0,        600,        600,        0,   230400, 0x7f9b373e
0,        700,        700,        0,   230400, 0x51caac22
0,        800,        800,        0,   230400, 0x0f2ac153
0,        900,        900,        0,   230400, 0xe5a6f9e7
0,       1000,       1000,        0,   230400, 0xfc2b2250
0,       1100,       1100,        0,   230400, 0x24e2da1b
0,       1200,       1200,        0,   230400, 0x2723d7dd
0,       1300,       1300,        0,   230400, 0x024a4989
0,       1400,       1400,        0,   230400, 0xdbafb92d
0,       1500,       1500,        0,   230400, 0x6b9b5056
0,       1600,       1600,        0,   230400, 0x010cabb4
0,       1700,       1700,        0,   230400, 0xf75bc1c0
0,       1800,       1800,        0,   230400, 0x6c7fd744
0,       1900,       1900,        0,   230400, 0xabe4371a
0,       2000,       2000,        0,   230400, 0xe41fb781
0,       2100,       2100,        0,   230400, 0x42c5649e
0,       2200,       2200,        0,   230400, 0xf5511deb
0,       2300,       2300,        0,   230400, 0xebf5ab32
0,       2400,       2400,        0,   230400, 0x44398194
0,       2500,       2500,        0,   230400, 0xfd63510c
0,       2600,       2600,        0,   230400, 0xa013975e
0,       2700,       2700,        0,   230400, 0xe0aa028d
0,       2800,       2800,        0,   230400, 0x349f6f3b
0,       2900,       2900,        0,   230400, 0x2446032c
0,       3000,       3000,        0,   230400, 0x648f122c
0,       3100,       3100,        0,   230400, 0xbda221fd
0,       3200,       3200,        0,   230400, 0xf0f97642
0,       3300,       3300,        0,   230400, 0x6a1737de
0,       3400,       3400,        0,   230400, 0x808a8179
0,       3500,       3500,        0,   230400, 0x121641cf
0,       3600,       3600,        0,   230400, 0x275d11ea
0,       3700,       3700,        0,   230400, 0x92adf2cf
